<svg xmlns="http://www.w3.org/2000/svg" viewBox="0 0 841.9 595.3">
	<symbol id="icon-document" viewBox="0 0 512 512">
		<path d="M428,224H288a48,48,0,0,1-48-48V36a4,4,0,0,0-4-4H144A64,64,0,0,0,80,96V416a64,64,0,0,0,64,64H368a64,64,0,0,0,64-64V228A4,4,0,0,0,428,224Z" />
		<path d="M419.22,188.59,275.41,44.78A2,2,0,0,0,272,46.19V176a16,16,0,0,0,16,16H417.81A2,2,0,0,0,419.22,188.59Z" />
	</symbol>

	<symbol id="icon-back-arrow" viewBox="0 0 11 20">
		<path d="M16.62,2.99 C16.13,2.5 15.34,2.5 14.85,2.99 L6.54,11.3 C6.15,11.69 6.15,12.32 6.54,12.71 L14.85,21.02 C15.34,21.51 16.13,21.51 16.62,21.02 C17.11,20.53 17.11,19.74 16.62,19.25 L9.38,12 L16.63,4.75 C17.11,4.27 17.11,3.47 16.62,2.99 Z" id="🔹-Icon-Color" fill="#1D1D1D"/>
	</symbol>
</svg>
